<svg width="24" height="24" viewBox="0 0 24 24" fill="none" xmlns="http://www.w3.org/2000/svg">
<path d="M11.8916 23.9513C18.4579 23.9513 23.7809 18.674 23.7809 12.1641C23.7809 5.65425 18.4579 0.376953 11.8916 0.376953C5.32525 0.376953 0.00219727 5.65425 0.00219727 12.1641C0.00219727 18.674 5.32525 23.9513 11.8916 23.9513Z" fill="#FFDD15"/>
<path d="M22.7014 7.23345C22.6653 7.16313 22.628 7.09379 22.5907 7.02449C25.4089 12.7847 23.0696 19.7469 17.29 22.6667C11.5104 25.5865 4.45382 23.371 1.40942 17.7251C1.44401 17.7958 1.4787 17.8664 1.51484 17.9367C4.4961 23.737 11.6557 26.043 17.5062 23.0874C23.3567 20.1317 25.6827 13.0337 22.7014 7.23345Z" fill="#D87D13"/>
<path d="M6.49385 1.66244C0.64334 4.61807 -1.68267 11.7161 1.29859 17.5163L22.4852 6.81303C19.5039 1.01281 12.3444 -1.29321 6.49385 1.66244Z" fill="#FFEE71"/>
<path d="M11.8919 21.9771C17.3583 21.9771 21.7896 17.5839 21.7896 12.1645C21.7896 6.74517 17.3583 2.35191 11.8919 2.35191C6.42561 2.35191 1.99426 6.74517 1.99426 12.1645C1.99426 17.5839 6.42561 21.9771 11.8919 21.9771Z" fill="#FABF03"/>
<path d="M7.39807 3.42191C2.52762 5.88242 0.591278 11.7914 3.07312 16.62L20.7106 7.7097C18.2288 2.8811 12.2685 0.961395 7.39807 3.42191Z" fill="#F7C908"/>
<path d="M7.39807 3.42191C2.52762 5.88242 0.591278 11.7914 3.07312 16.62L20.7106 7.7097C18.2288 2.8811 12.2685 0.961395 7.39807 3.42191Z" fill="#F7C908"/>
<path d="M2.69464 9.55307C4.38364 4.39889 9.96736 1.57804 15.1662 3.25252C17.6842 4.06352 19.6501 5.7803 20.8161 7.92079C19.6859 5.5856 17.6309 3.69535 14.95 2.83188C9.75116 1.15739 4.16744 3.97825 2.47844 9.13243C1.60747 11.7903 1.94226 14.5496 3.18372 16.8285C2.12223 14.6352 1.87661 12.0494 2.69464 9.55307Z" fill="#D87D13"/>
<path d="M14.2521 11.6063C13.7706 11.3214 13.1616 11.0791 12.4248 10.8795L11.9679 10.7553C11.6879 10.6725 11.4656 10.5945 11.3011 10.5215C11.1365 10.4484 11.0149 10.368 10.9364 10.2804C10.8578 10.1928 10.8185 10.0905 10.8185 9.97359C10.8185 9.81784 10.8762 9.67905 10.9916 9.5572C11.107 9.43561 11.2667 9.34057 11.4706 9.27235C11.6744 9.20422 11.9016 9.17006 12.1522 9.17006C12.5156 9.17006 12.8693 9.23951 13.2132 9.3783C13.5569 9.5171 13.9058 9.72778 14.2595 10.0102L15.6889 8.16199C15.1731 7.74325 14.6132 7.42303 14.009 7.20143C13.6054 7.05342 13.1951 6.95604 12.7785 6.90689V5.70027H11.0837V6.98057C10.7728 7.04864 10.4777 7.14725 10.1996 7.27813C9.61989 7.55091 9.16306 7.9246 8.82906 8.39941C8.49497 8.87424 8.32802 9.40635 8.32802 9.99552C8.32802 10.731 8.58709 11.3543 9.10537 11.8656C9.6236 12.377 10.3739 12.752 11.3564 12.9906L11.8206 13.1001C12.1841 13.1878 12.4664 13.2743 12.6679 13.3594C12.8693 13.4447 13.0117 13.5409 13.0953 13.648C13.1788 13.7552 13.2206 13.8843 13.2206 14.0352C13.2206 14.2153 13.1664 14.3712 13.0585 14.5026C12.9503 14.6342 12.7956 14.7352 12.5942 14.8058C12.3928 14.8765 12.1496 14.9118 11.8648 14.9118C11.4375 14.9118 11.0186 14.8314 10.6085 14.6707C10.1983 14.51 9.81148 14.2738 9.44801 13.9621L7.97437 15.7956C8.5196 16.2485 9.13488 16.598 9.82012 16.8439C10.2427 16.9956 10.664 17.1001 11.0838 17.1582V18.3816H12.7785V17.1335C13.1596 17.0654 13.5151 16.9541 13.8432 16.7964C14.4203 16.5188 14.8722 16.1342 15.1989 15.6423C15.5255 15.1504 15.6889 14.5952 15.6889 13.9767C15.6889 13.4606 15.5697 13.0077 15.3316 12.618C15.0932 12.2285 14.7335 11.8911 14.2521 11.6063Z" fill="white"/>
<path d="M14.5888 12.1068C14.1073 11.8219 13.4983 11.5797 12.7614 11.38L12.3046 11.2558C12.0246 11.1731 11.8023 11.0951 11.6378 11.0221C11.4732 10.949 11.3516 10.8686 11.2731 10.781C11.1944 10.6933 11.1552 10.5911 11.1552 10.4742C11.1552 10.3184 11.2129 10.1796 11.3283 10.0578C11.4437 9.93617 11.6034 9.84114 11.8073 9.77292C12.0111 9.70478 12.2383 9.67063 12.4888 9.67063C12.8523 9.67063 13.206 9.74007 13.5498 9.87887C13.8936 10.0177 14.2425 10.2283 14.5961 10.5107L16.0256 8.66256C15.5098 8.24381 14.9498 7.92358 14.3456 7.702C13.9421 7.55399 13.5318 7.4566 13.1151 7.40745V6.20084H11.4204V7.48113C11.1094 7.54921 10.8144 7.64782 10.5363 7.7787C9.95657 8.05148 9.49975 8.42515 9.16575 8.89998C8.83166 9.3748 8.6647 9.90692 8.6647 10.4961C8.6647 11.2315 8.92377 11.8549 9.44205 12.3662C9.96028 12.8775 10.7105 13.2526 11.6931 13.4911L12.1573 13.6007C12.5207 13.6884 12.8031 13.7749 13.0046 13.86C13.206 13.9453 13.3484 14.0415 13.432 14.1486C13.5154 14.2558 13.5572 14.3849 13.5572 14.5357C13.5572 14.7159 13.5031 14.8718 13.3951 15.0032C13.287 15.1347 13.1323 15.2358 12.9309 15.3064C12.7294 15.3771 12.4863 15.4123 12.2015 15.4123C11.7741 15.4123 11.3553 15.332 10.9452 15.1713C10.535 15.0105 10.1482 14.7744 9.78468 14.4627L8.31104 16.2962C8.85627 16.7491 9.47154 17.0986 10.1568 17.3445C10.5794 17.4962 11.0006 17.6007 11.4204 17.6588V18.8821H13.1151V17.6341C13.4963 17.566 13.8518 17.4547 14.1798 17.297C14.757 17.0194 15.2089 16.6348 15.5356 16.1428C15.8622 15.651 16.0256 15.0958 16.0256 14.4773C16.0256 13.9612 15.9064 13.5083 15.6682 13.1186C15.4299 12.729 15.0701 12.3917 14.5888 12.1068Z" fill="#D87D13"/>
<path d="M14.4204 11.7734C13.939 11.4885 13.3299 11.2462 12.5931 11.0466L12.1362 10.9224C11.8562 10.8397 11.634 10.7616 11.4694 10.6886C11.3048 10.6155 11.1832 10.5352 11.1047 10.4476C11.0261 10.3599 10.9868 10.2577 10.9868 10.1407C10.9868 9.98496 11.0445 9.84616 11.16 9.72431C11.2753 9.60272 11.435 9.50769 11.6389 9.43947C11.8427 9.37133 12.07 9.33718 12.3205 9.33718C12.6839 9.33718 13.0376 9.40662 13.3815 9.54542C13.7253 9.68422 14.0741 9.8949 14.4278 10.1773L15.8572 8.32911C15.3415 7.91036 14.7815 7.59015 14.1773 7.36855C13.7737 7.22054 13.3634 7.12315 12.9468 7.074V5.86739H11.2521V7.14768C10.9411 7.21576 10.646 7.31437 10.3679 7.44525C9.78821 7.71803 9.33138 8.0917 8.99738 8.56653C8.66329 9.04135 8.49634 9.57347 8.49634 10.1626C8.49634 10.8981 8.75541 11.5214 9.27369 12.0327C9.79192 12.5441 10.5422 12.9191 11.5247 13.1577L11.9889 13.2672C12.3524 13.3549 12.6348 13.4414 12.8363 13.5266C13.0376 13.6118 13.18 13.7081 13.2636 13.8152C13.3471 13.9223 13.3889 14.0514 13.3889 14.2023C13.3889 14.3825 13.3348 14.5383 13.2268 14.6698C13.1187 14.8013 12.9639 14.9024 12.7626 14.973C12.5611 15.0436 12.318 15.0789 12.0331 15.0789C11.6058 15.0789 11.187 14.9985 10.7769 14.8378C10.3666 14.6771 9.97982 14.4409 9.61634 14.1293L8.1427 15.9628C8.68793 16.4157 9.30321 16.7651 9.98846 17.011C10.4111 17.1627 10.8323 17.2673 11.2521 17.3254V18.5487H12.9468V17.3007C13.3279 17.2326 13.6835 17.1213 14.0115 16.9635C14.5886 16.6859 15.0405 16.3013 15.3673 15.8094C15.6939 15.3175 15.8573 14.7624 15.8573 14.1439C15.8573 13.6277 15.7381 13.1748 15.4999 12.7852C15.2616 12.3956 14.9018 12.0582 14.4204 11.7734Z" fill="#FFDD15"/>
<path d="M14.4204 11.7734C13.939 11.4885 13.3299 11.2463 12.5931 11.0466L12.1363 10.9224C11.8563 10.8397 11.634 10.7617 11.4694 10.6886C11.3048 10.6155 11.1832 10.5352 11.1047 10.4476C11.0261 10.3599 10.9868 10.2577 10.9868 10.1407C10.9868 9.98497 11.0445 9.84618 11.16 9.72433C11.2753 9.60274 11.435 9.5077 11.6389 9.43948C11.8427 9.37135 12.07 9.33719 12.3205 9.33719C12.6839 9.33719 13.0376 9.40664 13.3815 9.54543C13.7253 9.68423 14.0741 9.89491 14.4278 10.1773L15.8572 8.32912C15.3415 7.91038 14.7815 7.59015 14.1773 7.36855C13.7737 7.22054 13.3635 7.12315 12.9468 7.074V5.86739H11.2521V7.14768C10.9411 7.21576 10.6461 7.31437 10.3679 7.44525C9.78822 7.71803 9.3314 8.0917 8.9974 8.56653C8.66331 9.04135 8.49634 9.57347 8.49634 10.1626C8.49634 10.8981 8.75541 11.5214 9.27369 12.0327C9.33489 12.0931 9.39959 12.1515 9.46727 12.208L15.0151 12.2081C14.8431 12.0518 14.6456 11.9066 14.4204 11.7734Z" fill="#FFEE71"/>
<path d="M14.4204 11.7735C13.939 11.4886 13.3299 11.2464 12.5931 11.0467L12.1362 10.9225C11.8562 10.8398 11.634 10.7618 11.4694 10.6888C11.3048 10.6157 11.1832 10.5353 11.1047 10.4477C11.0261 10.36 10.9868 10.2578 10.9868 10.1409C10.9868 9.98511 11.0445 9.84631 11.16 9.72447C11.2753 9.60287 11.435 9.50784 11.6389 9.43962C11.8427 9.37149 12.07 9.33733 12.3205 9.33733C12.6839 9.33733 13.0376 9.40677 13.3815 9.54557C13.7253 9.68437 14.0741 9.89505 14.4278 10.1774L15.8572 8.32926C15.3415 7.91051 14.7815 7.5903 14.1773 7.3687C13.7737 7.22069 13.3634 7.1233 12.9468 7.07415V5.86754H11.2521V7.14783C10.9411 7.21591 10.646 7.31452 10.3679 7.4454C9.78821 7.71818 9.33138 8.09185 8.99738 8.56668C8.66329 9.04151 8.49634 9.57362 8.49634 10.1628C8.49634 10.8982 8.75541 11.5216 9.27369 12.0329C9.79192 12.5442 10.5422 12.9193 11.5247 13.1578L11.9889 13.2674C12.3524 13.3551 12.6348 13.4415 12.8363 13.5267C13.0376 13.612 13.18 13.7082 13.2636 13.8153C13.3471 13.9225 13.3889 14.0516 13.3889 14.2024C13.3889 14.3826 13.3348 14.5385 13.2268 14.6699C13.1187 14.8015 12.9639 14.9025 12.7626 14.9731C12.5611 15.0438 12.318 15.0791 12.0331 15.0791C11.6058 15.0791 11.187 14.9987 10.7769 14.838C10.3666 14.6773 9.97982 14.4411 9.61634 14.1294L8.1427 15.9629C8.68793 16.4158 9.30321 16.7653 9.98846 17.0112C10.4111 17.1629 10.8323 17.2674 11.2521 17.3255V18.5489H12.9468V17.3008C13.3279 17.2327 13.6835 17.1214 14.0115 16.9637C14.5886 16.6861 15.0405 16.3015 15.3673 15.8096C15.6939 15.3177 15.8573 14.7625 15.8573 14.144C15.8573 13.6279 15.7381 13.175 15.4999 12.7853C15.2616 12.3957 14.9018 12.0584 14.4204 11.7735Z" fill="#FFDD15"/>
<path d="M12.5931 11.0467L12.1362 10.9225C11.8562 10.8398 11.634 10.7618 11.4694 10.6888C11.3048 10.6157 11.1832 10.5353 11.1047 10.4477C11.0261 10.36 10.9868 10.2578 10.9868 10.1409C10.9868 9.98511 11.0445 9.84631 11.16 9.72447C11.2753 9.60287 11.435 9.50784 11.6389 9.43962C11.8427 9.37149 12.07 9.33733 12.3205 9.33733C12.6839 9.33733 13.0376 9.40677 13.3815 9.54557C13.7253 9.68437 14.0741 9.89504 14.4278 10.1774L15.8572 8.32926C15.3415 7.91051 14.7815 7.59029 14.1773 7.3687C13.7737 7.22069 13.3635 7.1233 12.9468 7.07415V5.86754H11.2521V7.14784C10.9411 7.21591 10.646 7.31452 10.3679 7.4454C9.78822 7.71818 9.33138 8.09185 8.99738 8.56668C8.66329 9.04151 8.49634 9.57362 8.49634 10.1628C8.49634 10.8982 8.75541 11.5216 9.27369 12.0329C9.60389 12.3587 10.0287 12.6289 10.5474 12.844L13.5157 11.3445C13.2343 11.2365 12.9269 11.1372 12.5931 11.0467Z" fill="#FFEE71"/>
</svg>
