<svg width="33" height="24" viewBox="0 0 33 24" fill="none" xmlns="http://www.w3.org/2000/svg">
<path fill-rule="evenodd" clip-rule="evenodd" d="M22.3818 6.15687C22.3818 9.57458 19.6572 12.315 16.2592 12.315C12.8612 12.315 10.1366 9.57458 10.1366 6.15687C10.1366 2.73784 12.8612 0 16.2592 0C19.6572 0 22.3818 2.73784 22.3818 6.15687ZM16.2591 23.2727C11.2683 23.2727 7.00688 22.4815 7.00688 19.3166C7.00688 16.1504 11.241 15.3304 16.2591 15.3304C21.25 15.3304 25.5114 16.1216 25.5114 19.2878C25.5114 22.4527 21.2773 23.2727 16.2591 23.2727ZM24.9982 6.268C24.9982 8.01027 24.4785 9.63332 23.5668 10.9826C23.4731 11.1214 23.5564 11.3088 23.7218 11.3376C23.9498 11.3769 24.1855 11.3992 24.4251 11.4057C26.815 11.4686 28.9601 9.92151 29.5527 7.59238C30.4305 4.13275 27.8531 1.02681 24.571 1.02681C24.2141 1.02681 23.8729 1.0648 23.5408 1.13292C23.4952 1.1434 23.447 1.16435 23.421 1.20496C23.3897 1.25474 23.4132 1.32155 23.4444 1.36478C24.4303 2.75466 24.9982 4.44976 24.9982 6.268ZM28.9561 13.8365C30.562 14.1522 31.6182 14.7967 32.0558 15.7333C32.4257 16.5023 32.4257 17.3944 32.0558 18.162C31.3864 19.6148 29.2283 20.0811 28.3896 20.2016C28.2163 20.2278 28.077 20.0772 28.0952 19.9029C28.5237 15.8774 25.1153 13.9688 24.2336 13.5299C24.1958 13.5103 24.188 13.4802 24.1919 13.4618C24.1945 13.4487 24.2102 13.4278 24.2388 13.4238C26.1468 13.3885 28.1981 13.6505 28.9561 13.8365ZM8.24176 11.4056C8.4814 11.399 8.71583 11.3781 8.94506 11.3375C9.11046 11.3087 9.19382 11.1213 9.10004 10.9825C8.18836 9.6332 7.6687 8.01015 7.6687 6.26789C7.6687 4.44965 8.23655 2.75454 9.22247 1.36466C9.25373 1.32143 9.27587 1.25462 9.24591 1.20485C9.21986 1.16555 9.17037 1.14328 9.12609 1.1328C8.79268 1.06468 8.45145 1.02669 8.09459 1.02669C4.81254 1.02669 2.23508 4.13263 3.1142 7.59227C3.7068 9.9214 5.85185 11.4685 8.24176 11.4056ZM8.47436 13.461C8.47827 13.4807 8.47045 13.5095 8.43399 13.5305C7.55096 13.9693 4.14257 15.8779 4.57106 19.9022C4.5893 20.0777 4.45124 20.227 4.27802 20.2022C3.43928 20.0816 1.2812 19.6153 0.611762 18.1625C0.240578 17.3936 0.240578 16.5028 0.611762 15.7338C1.04937 14.7972 2.10431 14.1527 3.71018 13.8357C4.46948 13.651 6.51946 13.389 8.42878 13.4244C8.45743 13.4283 8.47176 13.4492 8.47436 13.461Z" fill="#585858"/>
</svg>
