<svg width="26" height="28" viewBox="0 0 26 28" fill="none" xmlns="http://www.w3.org/2000/svg">
<path d="M9.17968 25.6978V21.6208C9.17968 20.5801 10.0295 19.7364 11.0779 19.7364H14.9101C15.4136 19.7364 15.8964 19.935 16.2524 20.2884C16.6083 20.6418 16.8083 21.1211 16.8083 21.6208V25.6978C16.8052 26.1305 16.9761 26.5465 17.2831 26.8536C17.5902 27.1607 18.008 27.3333 18.4439 27.3333H21.0584C22.2795 27.3365 23.4517 26.8571 24.3162 26.0011C25.1808 25.145 25.6667 23.9827 25.6666 22.7705V11.1558C25.6666 10.1766 25.2294 9.24781 24.4728 8.61958L15.5787 1.56785C14.0315 0.331436 11.8148 0.371357 10.3138 1.66266L1.62266 8.61958C0.830301 9.22929 0.356716 10.1609 0.333313 11.1558V22.7586C0.333313 25.2852 2.39649 27.3333 4.94154 27.3333H7.49637C8.40162 27.3334 9.13731 26.6083 9.14387 25.7097L9.17968 25.6978Z" fill="white"/>
</svg>
