<svg width="44" height="45" viewBox="0 0 44 45" fill="none" xmlns="http://www.w3.org/2000/svg">
<path d="M22 44.5C9.8516 44.5 0 34.6484 0 22.5C0 10.3516 9.8516 0.5 22 0.5C34.1484 0.5 44 10.3516 44 22.5C44 34.6484 34.1484 44.5 22 44.5Z" fill="#FF0000"/>
<path d="M36.0011 15.4204C35.6667 14.1532 34.6767 13.1588 33.4183 12.82C31.1391 12.204 22.0047 12.204 22.0047 12.204C22.0047 12.204 12.8659 12.204 10.5911 12.82C9.33267 13.1588 8.34267 14.1532 8.00827 15.4204C7.39227 17.7128 7.39227 22.5 7.39227 22.5C7.39227 22.5 7.39227 27.2872 8.00387 29.5796C8.33827 30.8468 9.32827 31.8412 10.5867 32.18C12.8659 32.796 22.0003 32.796 22.0003 32.796C22.0003 32.796 31.1391 32.796 33.4139 32.18C34.6723 31.8412 35.6623 30.8468 35.9967 29.5796C36.6083 27.2872 36.6083 22.5 36.6083 22.5C36.6083 22.5 36.6083 17.7128 36.0011 15.4204ZM19.0127 26.8428V18.1572L26.6467 22.5L19.0127 26.8428Z" fill="white"/>
</svg>
